<?xml version="1.0" encoding="UTF-8" standalone="no"?>
<!DOCTYPE svg PUBLIC "-//W3C//DTD SVG 1.1//EN"
 "http://www.w3.org/Graphics/SVG/1.1/DTD/svg11.dtd">
<!-- Generated by graphviz version 2.47.3 (20210619.1520)
 -->
<!-- Title: dependencies Pages: 1 -->
<svg width="420pt" height="174pt"
 viewBox="0.00 0.00 420.00 173.80" xmlns="http://www.w3.org/2000/svg" xmlns:xlink="http://www.w3.org/1999/xlink">
<g id="graph0" class="graph" transform="scale(1 1) rotate(0) translate(4 169.8)">
<title>dependencies</title>
<polygon fill="white" stroke="transparent" points="-4,4 -4,-169.8 416,-169.8 416,4 -4,4"/>
<text text-anchor="middle" x="206" y="-8.2" font-family="sans-serif" font-size="14.00">dependencies</text>
<g id="clust1" class="cluster">
<title>cluster_PageExempleModule</title>
<polygon fill="none" stroke="black" stroke-dasharray="1,5" points="8,-32.8 8,-157.8 404,-157.8 404,-32.8 8,-32.8"/>
</g>
<g id="clust2" class="cluster">
<title>cluster_PageExempleModule_declarations</title>
<polygon fill="none" stroke="black" points="222,-40.8 222,-92.8 396,-92.8 396,-40.8 222,-40.8"/>
</g>
<g id="clust4" class="cluster">
<title>cluster_PageExempleModule_imports</title>
<polygon fill="none" stroke="black" points="16,-40.8 16,-92.8 214,-92.8 214,-40.8 16,-40.8"/>
</g>
<!-- PageExempleComponent -->
<g id="node1" class="node">
<title>PageExempleComponent</title>
<polygon fill="#ffffb3" stroke="black" points="388.31,-84.8 229.69,-84.8 229.69,-48.8 388.31,-48.8 388.31,-84.8"/>
<text text-anchor="middle" x="309" y="-62.6" font-family="Times,serif" font-size="14.00">PageExempleComponent</text>
</g>
<!-- PageExempleModule -->
<g id="node2" class="node">
<title>PageExempleModule</title>
<polygon fill="#8dd3c7" stroke="black" points="280.03,-149.8 277.03,-153.8 256.03,-153.8 253.03,-149.8 143.97,-149.8 143.97,-113.8 280.03,-113.8 280.03,-149.8"/>
<text text-anchor="middle" x="212" y="-127.6" font-family="Times,serif" font-size="14.00">PageExempleModule</text>
</g>
<!-- PageExempleComponent&#45;&gt;PageExempleModule -->
<g id="edge1" class="edge">
<title>PageExempleComponent&#45;&gt;PageExempleModule</title>
<path fill="none" stroke="black" d="M255.05,-84.91C255.05,-84.91 255.05,-103.79 255.05,-103.79"/>
<polygon fill="black" stroke="black" points="251.55,-103.79 255.05,-113.79 258.55,-103.79 251.55,-103.79"/>
</g>
<!-- PageExempleRoutingModule -->
<g id="node3" class="node">
<title>PageExempleRoutingModule</title>
<polygon fill="#8dd3c7" stroke="black" points="205.64,-84.8 202.64,-88.8 181.64,-88.8 178.64,-84.8 24.36,-84.8 24.36,-48.8 205.64,-48.8 205.64,-84.8"/>
<text text-anchor="middle" x="115" y="-62.6" font-family="Times,serif" font-size="14.00">PageExempleRoutingModule</text>
</g>
<!-- PageExempleRoutingModule&#45;&gt;PageExempleModule -->
<g id="edge2" class="edge">
<title>PageExempleRoutingModule&#45;&gt;PageExempleModule</title>
<path fill="none" stroke="black" d="M174.78,-84.91C174.78,-84.91 174.78,-103.79 174.78,-103.79"/>
<polygon fill="black" stroke="black" points="171.28,-103.79 174.78,-113.79 178.28,-103.79 171.28,-103.79"/>
</g>
</g>
</svg>
