<?xml version="1.0" encoding="UTF-8" standalone="no"?>
<!DOCTYPE svg PUBLIC "-//W3C//DTD SVG 1.1//EN"
 "http://www.w3.org/Graphics/SVG/1.1/DTD/svg11.dtd">
<!-- Generated by graphviz version 2.47.3 (20210619.1520)
 -->
<!-- Title: dependencies Pages: 1 -->
<svg width="496pt" height="174pt"
 viewBox="0.00 0.00 496.00 173.80" xmlns="http://www.w3.org/2000/svg" xmlns:xlink="http://www.w3.org/1999/xlink">
<g id="graph0" class="graph" transform="scale(1 1) rotate(0) translate(4 169.8)">
<title>dependencies</title>
<polygon fill="white" stroke="transparent" points="-4,4 -4,-169.8 492,-169.8 492,4 -4,4"/>
<text text-anchor="middle" x="244" y="-8.2" font-family="sans-serif" font-size="14.00">dependencies</text>
<g id="clust1" class="cluster">
<title>cluster_LoginModule</title>
<polygon fill="none" stroke="black" stroke-dasharray="1,5" points="8,-32.8 8,-157.8 480,-157.8 480,-32.8 8,-32.8"/>
</g>
<g id="clust2" class="cluster">
<title>cluster_LoginModule_declarations</title>
<polygon fill="none" stroke="black" points="178,-40.8 178,-92.8 472,-92.8 472,-40.8 178,-40.8"/>
</g>
<g id="clust5" class="cluster">
<title>cluster_LoginModule_imports</title>
<polygon fill="none" stroke="black" points="16,-40.8 16,-92.8 170,-92.8 170,-40.8 16,-40.8"/>
</g>
<!-- LoginComponent -->
<g id="node1" class="node">
<title>LoginComponent</title>
<polygon fill="#ffffb3" stroke="black" points="464.28,-84.8 349.72,-84.8 349.72,-48.8 464.28,-48.8 464.28,-84.8"/>
<text text-anchor="middle" x="407" y="-62.6" font-family="Times,serif" font-size="14.00">LoginComponent</text>
</g>
<!-- LoginModule -->
<g id="node3" class="node">
<title>LoginModule</title>
<polygon fill="#8dd3c7" stroke="black" points="305.49,-149.8 302.49,-153.8 281.49,-153.8 278.49,-149.8 212.51,-149.8 212.51,-113.8 305.49,-113.8 305.49,-149.8"/>
<text text-anchor="middle" x="259" y="-127.6" font-family="Times,serif" font-size="14.00">LoginModule</text>
</g>
<!-- LoginComponent&#45;&gt;LoginModule -->
<g id="edge1" class="edge">
<title>LoginComponent&#45;&gt;LoginModule</title>
<path fill="none" stroke="black" d="M407,-84.91C407,-104.14 407,-131.8 407,-131.8 407,-131.8 315.83,-131.8 315.83,-131.8"/>
<polygon fill="black" stroke="black" points="315.83,-128.3 305.83,-131.8 315.83,-135.3 315.83,-128.3"/>
</g>
<!-- LoginFormComponent -->
<g id="node2" class="node">
<title>LoginFormComponent</title>
<polygon fill="#ffffb3" stroke="black" points="331.61,-84.8 186.39,-84.8 186.39,-48.8 331.61,-48.8 331.61,-84.8"/>
<text text-anchor="middle" x="259" y="-62.6" font-family="Times,serif" font-size="14.00">LoginFormComponent</text>
</g>
<!-- LoginFormComponent&#45;&gt;LoginModule -->
<g id="edge2" class="edge">
<title>LoginFormComponent&#45;&gt;LoginModule</title>
<path fill="none" stroke="black" d="M259,-84.91C259,-84.91 259,-103.79 259,-103.79"/>
<polygon fill="black" stroke="black" points="255.5,-103.79 259,-113.79 262.5,-103.79 255.5,-103.79"/>
</g>
<!-- LoginRoutingModule -->
<g id="node4" class="node">
<title>LoginRoutingModule</title>
<polygon fill="#8dd3c7" stroke="black" points="162.11,-84.8 159.11,-88.8 138.11,-88.8 135.11,-84.8 23.89,-84.8 23.89,-48.8 162.11,-48.8 162.11,-84.8"/>
<text text-anchor="middle" x="93" y="-62.6" font-family="Times,serif" font-size="14.00">LoginRoutingModule</text>
</g>
<!-- LoginRoutingModule&#45;&gt;LoginModule -->
<g id="edge3" class="edge">
<title>LoginRoutingModule&#45;&gt;LoginModule</title>
<path fill="none" stroke="black" d="M93,-84.91C93,-104.14 93,-131.8 93,-131.8 93,-131.8 202.32,-131.8 202.32,-131.8"/>
<polygon fill="black" stroke="black" points="202.32,-135.3 212.32,-131.8 202.32,-128.3 202.32,-135.3"/>
</g>
</g>
</svg>
