<?xml version="1.0" encoding="UTF-8" standalone="no"?>
<!DOCTYPE svg PUBLIC "-//W3C//DTD SVG 1.1//EN"
 "http://www.w3.org/Graphics/SVG/1.1/DTD/svg11.dtd">
<!-- Generated by graphviz version 2.47.3 (20210619.1520)
 -->
<!-- Title: dependencies Pages: 1 -->
<svg width="524pt" height="247pt"
 viewBox="0.00 0.00 524.00 246.80" xmlns="http://www.w3.org/2000/svg" xmlns:xlink="http://www.w3.org/1999/xlink">
<g id="graph0" class="graph" transform="scale(1 1) rotate(0) translate(4 242.8)">
<title>dependencies</title>
<polygon fill="white" stroke="transparent" points="-4,4 -4,-242.8 520,-242.8 520,4 -4,4"/>
<text text-anchor="middle" x="258" y="-8.2" font-family="sans-serif" font-size="14.00">dependencies</text>
<g id="clust1" class="cluster">
<title>cluster_SharedComponentsModule</title>
<polygon fill="none" stroke="black" stroke-dasharray="1,5" points="8,-32.8 8,-230.8 508,-230.8 508,-32.8 8,-32.8"/>
</g>
<g id="clust2" class="cluster">
<title>cluster_SharedComponentsModule_declarations</title>
<polygon fill="none" stroke="black" points="21,-40.8 21,-92.8 495,-92.8 495,-40.8 21,-40.8"/>
</g>
<g id="clust7" class="cluster">
<title>cluster_SharedComponentsModule_exports</title>
<polygon fill="none" stroke="black" points="16,-170.8 16,-222.8 500,-222.8 500,-170.8 16,-170.8"/>
</g>
<!-- ConnectionButtonComponent -->
<g id="node1" class="node">
<title>ConnectionButtonComponent</title>
<polygon fill="#ffffb3" stroke="black" points="487,-84.8 303,-84.8 303,-48.8 487,-48.8 487,-84.8"/>
<text text-anchor="middle" x="395" y="-62.6" font-family="Times,serif" font-size="14.00">ConnectionButtonComponent</text>
</g>
<!-- SharedComponentsModule -->
<g id="node4" class="node">
<title>SharedComponentsModule</title>
<polygon fill="#8dd3c7" stroke="black" points="304.7,-149.8 301.7,-153.8 280.7,-153.8 277.7,-149.8 135.3,-149.8 135.3,-113.8 304.7,-113.8 304.7,-149.8"/>
<text text-anchor="middle" x="220" y="-127.6" font-family="Times,serif" font-size="14.00">SharedComponentsModule</text>
</g>
<!-- ConnectionButtonComponent&#45;&gt;SharedComponentsModule -->
<g id="edge1" class="edge">
<title>ConnectionButtonComponent&#45;&gt;SharedComponentsModule</title>
<path fill="none" stroke="black" d="M302.86,-66.8C297.3,-66.8 293.89,-66.8 293.89,-66.8 293.89,-66.8 293.89,-103.69 293.89,-103.69"/>
<polygon fill="black" stroke="black" points="290.39,-103.69 293.89,-113.69 297.39,-103.69 290.39,-103.69"/>
</g>
<!-- SubTitleComponent -->
<g id="node2" class="node">
<title>SubTitleComponent</title>
<polygon fill="#ffffb3" stroke="black" points="284.55,-84.8 155.45,-84.8 155.45,-48.8 284.55,-48.8 284.55,-84.8"/>
<text text-anchor="middle" x="220" y="-62.6" font-family="Times,serif" font-size="14.00">SubTitleComponent</text>
</g>
<!-- SubTitleComponent&#45;&gt;SharedComponentsModule -->
<g id="edge2" class="edge">
<title>SubTitleComponent&#45;&gt;SharedComponentsModule</title>
<path fill="none" stroke="black" d="M220,-84.91C220,-84.91 220,-103.79 220,-103.79"/>
<polygon fill="black" stroke="black" points="216.5,-103.79 220,-113.79 223.5,-103.79 216.5,-103.79"/>
</g>
<!-- TitleComponent -->
<g id="node3" class="node">
<title>TitleComponent</title>
<polygon fill="#ffffb3" stroke="black" points="136.77,-84.8 29.23,-84.8 29.23,-48.8 136.77,-48.8 136.77,-84.8"/>
<text text-anchor="middle" x="83" y="-62.6" font-family="Times,serif" font-size="14.00">TitleComponent</text>
</g>
<!-- TitleComponent&#45;&gt;SharedComponentsModule -->
<g id="edge3" class="edge">
<title>TitleComponent&#45;&gt;SharedComponentsModule</title>
<path fill="none" stroke="black" d="M137.02,-66.8C142.47,-66.8 146.05,-66.8 146.05,-66.8 146.05,-66.8 146.05,-103.69 146.05,-103.69"/>
<polygon fill="black" stroke="black" points="142.55,-103.69 146.05,-113.69 149.55,-103.69 142.55,-103.69"/>
</g>
<!-- ConnectionButtonComponent  -->
<g id="node5" class="node">
<title>ConnectionButtonComponent </title>
<polygon fill="#fb8072" stroke="black" points="492,-214.8 304,-214.8 304,-178.8 492,-178.8 492,-214.8"/>
<text text-anchor="middle" x="398" y="-192.6" font-family="Times,serif" font-size="14.00">ConnectionButtonComponent </text>
</g>
<!-- SharedComponentsModule&#45;&gt;ConnectionButtonComponent  -->
<g id="edge4" class="edge">
<title>SharedComponentsModule&#45;&gt;ConnectionButtonComponent </title>
<path fill="none" stroke="black" stroke-dasharray="5,2" d="M295.39,-149.91C295.39,-169.14 295.39,-196.8 295.39,-196.8 295.39,-196.8 296.26,-196.8 296.26,-196.8"/>
<polygon fill="black" stroke="black" points="294.14,-200.3 304.14,-196.8 294.14,-193.3 294.14,-200.3"/>
</g>
<!-- SubTitleComponent  -->
<g id="node6" class="node">
<title>SubTitleComponent </title>
<polygon fill="#fb8072" stroke="black" points="286.55,-214.8 153.45,-214.8 153.45,-178.8 286.55,-178.8 286.55,-214.8"/>
<text text-anchor="middle" x="220" y="-192.6" font-family="Times,serif" font-size="14.00">SubTitleComponent </text>
</g>
<!-- SharedComponentsModule&#45;&gt;SubTitleComponent  -->
<g id="edge5" class="edge">
<title>SharedComponentsModule&#45;&gt;SubTitleComponent </title>
<path fill="none" stroke="black" stroke-dasharray="5,2" d="M220,-149.91C220,-149.91 220,-168.79 220,-168.79"/>
<polygon fill="black" stroke="black" points="216.5,-168.79 220,-178.79 223.5,-168.79 216.5,-168.79"/>
</g>
<!-- TitleComponent  -->
<g id="node7" class="node">
<title>TitleComponent </title>
<polygon fill="#fb8072" stroke="black" points="135.77,-214.8 24.23,-214.8 24.23,-178.8 135.77,-178.8 135.77,-214.8"/>
<text text-anchor="middle" x="80" y="-192.6" font-family="Times,serif" font-size="14.00">TitleComponent </text>
</g>
<!-- SharedComponentsModule&#45;&gt;TitleComponent  -->
<g id="edge6" class="edge">
<title>SharedComponentsModule&#45;&gt;TitleComponent </title>
<path fill="none" stroke="black" stroke-dasharray="5,2" d="M144.55,-149.91C144.55,-169.14 144.55,-196.8 144.55,-196.8 144.55,-196.8 143.68,-196.8 143.68,-196.8"/>
<polygon fill="black" stroke="black" points="145.85,-193.3 135.85,-196.8 145.85,-200.3 145.85,-193.3"/>
</g>
</g>
</svg>
