<?xml version="1.0" encoding="UTF-8" standalone="no"?>
<!DOCTYPE svg PUBLIC "-//W3C//DTD SVG 1.1//EN"
 "http://www.w3.org/Graphics/SVG/1.1/DTD/svg11.dtd">
<!-- Generated by graphviz version 2.47.3 (20210619.1520)
 -->
<!-- Title: dependencies Pages: 1 -->
<svg width="536pt" height="174pt"
 viewBox="0.00 0.00 536.00 173.80" xmlns="http://www.w3.org/2000/svg" xmlns:xlink="http://www.w3.org/1999/xlink">
<g id="graph0" class="graph" transform="scale(1 1) rotate(0) translate(4 169.8)">
<title>dependencies</title>
<polygon fill="white" stroke="transparent" points="-4,4 -4,-169.8 532,-169.8 532,4 -4,4"/>
<text text-anchor="middle" x="264" y="-8.2" font-family="sans-serif" font-size="14.00">dependencies</text>
<g id="clust1" class="cluster">
<title>cluster_RegisterModule</title>
<polygon fill="none" stroke="black" stroke-dasharray="1,5" points="8,-32.8 8,-157.8 520,-157.8 520,-32.8 8,-32.8"/>
</g>
<g id="clust2" class="cluster">
<title>cluster_RegisterModule_declarations</title>
<polygon fill="none" stroke="black" points="192,-40.8 192,-92.8 512,-92.8 512,-40.8 192,-40.8"/>
</g>
<g id="clust5" class="cluster">
<title>cluster_RegisterModule_imports</title>
<polygon fill="none" stroke="black" points="16,-40.8 16,-92.8 184,-92.8 184,-40.8 16,-40.8"/>
</g>
<!-- RegisterComponent -->
<g id="node1" class="node">
<title>RegisterComponent</title>
<polygon fill="#ffffb3" stroke="black" points="503.98,-84.8 376.02,-84.8 376.02,-48.8 503.98,-48.8 503.98,-84.8"/>
<text text-anchor="middle" x="440" y="-62.6" font-family="Times,serif" font-size="14.00">RegisterComponent</text>
</g>
<!-- RegisterModule -->
<g id="node3" class="node">
<title>RegisterModule</title>
<polygon fill="#8dd3c7" stroke="black" points="332.2,-149.8 329.2,-153.8 308.2,-153.8 305.2,-149.8 225.8,-149.8 225.8,-113.8 332.2,-113.8 332.2,-149.8"/>
<text text-anchor="middle" x="279" y="-127.6" font-family="Times,serif" font-size="14.00">RegisterModule</text>
</g>
<!-- RegisterComponent&#45;&gt;RegisterModule -->
<g id="edge1" class="edge">
<title>RegisterComponent&#45;&gt;RegisterModule</title>
<path fill="none" stroke="black" d="M440,-84.91C440,-104.14 440,-131.8 440,-131.8 440,-131.8 342.16,-131.8 342.16,-131.8"/>
<polygon fill="black" stroke="black" points="342.16,-128.3 332.16,-131.8 342.16,-135.3 342.16,-128.3"/>
</g>
<!-- RegisterFormComponent -->
<g id="node2" class="node">
<title>RegisterFormComponent</title>
<polygon fill="#ffffb3" stroke="black" points="358.32,-84.8 199.68,-84.8 199.68,-48.8 358.32,-48.8 358.32,-84.8"/>
<text text-anchor="middle" x="279" y="-62.6" font-family="Times,serif" font-size="14.00">RegisterFormComponent</text>
</g>
<!-- RegisterFormComponent&#45;&gt;RegisterModule -->
<g id="edge2" class="edge">
<title>RegisterFormComponent&#45;&gt;RegisterModule</title>
<path fill="none" stroke="black" d="M279,-84.91C279,-84.91 279,-103.79 279,-103.79"/>
<polygon fill="black" stroke="black" points="275.5,-103.79 279,-113.79 282.5,-103.79 275.5,-103.79"/>
</g>
<!-- RegisterRoutingModule -->
<g id="node4" class="node">
<title>RegisterRoutingModule</title>
<polygon fill="#8dd3c7" stroke="black" points="175.82,-84.8 172.82,-88.8 151.82,-88.8 148.82,-84.8 24.18,-84.8 24.18,-48.8 175.82,-48.8 175.82,-84.8"/>
<text text-anchor="middle" x="100" y="-62.6" font-family="Times,serif" font-size="14.00">RegisterRoutingModule</text>
</g>
<!-- RegisterRoutingModule&#45;&gt;RegisterModule -->
<g id="edge3" class="edge">
<title>RegisterRoutingModule&#45;&gt;RegisterModule</title>
<path fill="none" stroke="black" d="M100,-84.91C100,-104.14 100,-131.8 100,-131.8 100,-131.8 215.78,-131.8 215.78,-131.8"/>
<polygon fill="black" stroke="black" points="215.78,-135.3 225.78,-131.8 215.78,-128.3 215.78,-135.3"/>
</g>
</g>
</svg>
